<svg version="1.0" xmlns="http://www.w3.org/2000/svg"
 width="50px" height="50px" viewBox="0 0 1280.000000 1004.000000"
 preserveAspectRatio="xMidYMid meet" fill="#000000">
<g transform="translate(0.000000,1004.000000) scale(0.100000,-0.100000)"
 stroke="none">
<path d="M5950 10029 c-47 -4 -166 -13 -265 -19 -1026 -64 -1883 -349 -2552
-849 -237 -177 -538 -450 -761 -691 -638 -688 -993 -1401 -1092 -2196 -32
-251 -29 -665 5 -941 21 -165 68 -425 106 -583 16 -69 43 -190 60 -270 131
-635 319 -1202 565 -1709 52 -107 91 -198 87 -202 -5 -4 -19 -9 -33 -12 -17
-3 -12 -5 15 -6 l40 -1 77 -132 c115 -198 261 -428 299 -471 l34 -38 405 -9
c223 -5 428 -12 455 -15 28 -3 151 -10 275 -15 213 -10 1096 -76 1615 -120
2602 -221 4659 -491 6456 -845 152 -30 284 -55 293 -55 25 0 240 186 387 336
263 269 359 438 346 614 -7 95 -20 134 -122 356 -100 216 -119 275 -119 376
-1 67 2 79 23 102 13 14 40 29 60 32 68 12 110 35 132 71 28 45 58 171 59 244
0 84 -38 322 -67 414 -73 233 -236 452 -473 636 -113 88 -434 299 -454 299 -9
0 -285 -128 -614 -284 l-597 -284 -175 9 c-1201 56 -2069 299 -2366 663 -164
201 -306 632 -383 1161 -37 255 -37 261 -10 278 13 9 620 295 1349 637 729
342 1326 623 1328 625 2 1 -115 193 -259 426 -181 294 -259 427 -253 437 7 10
1845 846 2643 1203 24 10 42 22 39 24 -3 3 -63 12 -134 20 -584 67 -1040 135
-2374 355 -1726 284 -2362 368 -3115 410 -104 6 -262 15 -350 20 -183 11 -460
11 -585 -1z"/>
</g>
</svg>
